<?xml version="1.0" standalone="no"?>
<!DOCTYPE svg PUBLIC "-//W3C//DTD SVG 20010904//EN"
 "http://www.w3.org/TR/2001/REC-SVG-20010904/DTD/svg10.dtd">
<svg version="1.0" xmlns="http://www.w3.org/2000/svg"
 width="224.000000pt" height="211.000000pt" viewBox="0 0 224.000000 211.000000"
 preserveAspectRatio="xMidYMid meet">

<g transform="translate(0.000000,211.000000) scale(0.100000,-0.100000)"
fill="#AB7442" stroke="none">
<path d="M1185 1708 c-38 -66 -79 -135 -90 -152 -11 -17 -58 -95 -104 -173
-45 -79 -86 -145 -90 -148 -4 -2 -85 -5 -179 -5 -95 -1 -172 -5 -172 -9 0 -4
21 -30 47 -59 48 -51 48 -51 122 -57 40 -3 77 -8 82 -11 12 -7 -57 -136 -138
-256 -14 -20 -22 -42 -18 -47 4 -7 48 -11 109 -11 l104 0 72 123 c40 67 80
133 87 145 24 39 76 54 185 53 55 0 108 -3 118 -6 23 -7 29 -30 37 -132 7 -92
7 -91 -66 -77 -37 8 -40 27 -11 84 35 68 32 70 -73 70 l-94 0 -241 -415 c-133
-228 -242 -419 -242 -424 0 -4 57 -8 127 -7 l126 1 43 70 c24 39 49 84 57 100
22 48 167 297 194 332 24 33 25 33 107 33 76 0 84 -2 94 -22 7 -13 20 -88 29
-168 l18 -145 42 -3 41 -3 -4 43 c-3 24 -9 76 -14 116 -6 40 -10 95 -10 122 0
48 2 51 54 90 62 47 92 88 137 191 39 91 44 164 13 206 -35 49 -98 73 -186 73
-54 0 -80 4 -83 13 -3 6 -18 131 -35 277 -16 146 -32 275 -35 288 -5 19 -12
22 -48 22 l-42 0 -70 -122z m128 -356 c7 -61 11 -114 9 -117 -3 -3 -45 -5 -94
-5 -74 0 -88 3 -88 16 0 21 89 180 118 211 14 15 27 22 32 17 5 -5 15 -60 23
-122z m182 -292 c23 -25 15 -77 -17 -123 l-23 -32 -6 30 c-12 54 -10 133 4
138 20 9 23 8 42 -13z"/>
</g>
</svg>
